<mxfile host="app.diagrams.net" modified="2021-08-15T15:56:33.092Z" agent="5.0 (Windows NT 10.0; Win64; x64) AppleWebKit/537.36 (KHTML, like Gecko) Chrome/92.0.4515.131 Safari/537.36" etag="x3YVCdXkshhBd2N8m0AS" version="14.9.6" type="github">
  <diagram id="HthFx6uO3zYo_ckJuj4v" name="Page-1">
    <mxGraphModel dx="1038" dy="579" grid="0" gridSize="10" guides="1" tooltips="1" connect="1" arrows="1" fold="1" page="1" pageScale="1" pageWidth="827" pageHeight="1169" background="#FFD966" math="0" shadow="0">
      <root>
        <mxCell id="0" />
        <mxCell id="1" parent="0" />
        <mxCell id="RfUzpFnTfJlXqgFR28xh-44" value="&lt;font color=&quot;#99004d&quot;&gt;ADMIN&lt;/font&gt;" style="text;html=1;align=center;verticalAlign=middle;resizable=0;points=[];autosize=1;strokeColor=none;" parent="1" vertex="1">
          <mxGeometry x="205" width="50" height="20" as="geometry" />
        </mxCell>
        <mxCell id="RfUzpFnTfJlXqgFR28xh-56" value="" style="endArrow=classic;html=1;" parent="1" edge="1">
          <mxGeometry width="50" height="50" relative="1" as="geometry">
            <mxPoint x="40" y="386" as="sourcePoint" />
            <mxPoint x="40" y="403" as="targetPoint" />
          </mxGeometry>
        </mxCell>
        <mxCell id="RfUzpFnTfJlXqgFR28xh-57" value="" style="endArrow=classic;html=1;" parent="1" edge="1">
          <mxGeometry width="50" height="50" relative="1" as="geometry">
            <mxPoint x="121" y="385" as="sourcePoint" />
            <mxPoint x="121" y="402" as="targetPoint" />
          </mxGeometry>
        </mxCell>
        <mxCell id="RfUzpFnTfJlXqgFR28xh-58" value="" style="endArrow=classic;html=1;" parent="1" edge="1">
          <mxGeometry width="50" height="50" relative="1" as="geometry">
            <mxPoint x="200" y="386" as="sourcePoint" />
            <mxPoint x="200" y="403" as="targetPoint" />
          </mxGeometry>
        </mxCell>
        <mxCell id="RfUzpFnTfJlXqgFR28xh-59" value="" style="endArrow=classic;html=1;" parent="1" edge="1">
          <mxGeometry width="50" height="50" relative="1" as="geometry">
            <mxPoint x="281.5" y="387" as="sourcePoint" />
            <mxPoint x="281.5" y="404" as="targetPoint" />
          </mxGeometry>
        </mxCell>
        <mxCell id="RfUzpFnTfJlXqgFR28xh-60" value="" style="endArrow=classic;html=1;" parent="1" edge="1">
          <mxGeometry width="50" height="50" relative="1" as="geometry">
            <mxPoint x="360" y="386" as="sourcePoint" />
            <mxPoint x="360" y="403" as="targetPoint" />
          </mxGeometry>
        </mxCell>
        <mxCell id="RfUzpFnTfJlXqgFR28xh-61" value="" style="endArrow=classic;html=1;" parent="1" edge="1">
          <mxGeometry width="50" height="50" relative="1" as="geometry">
            <mxPoint x="440" y="386" as="sourcePoint" />
            <mxPoint x="440" y="403" as="targetPoint" />
          </mxGeometry>
        </mxCell>
        <mxCell id="RfUzpFnTfJlXqgFR28xh-62" value="" style="endArrow=classic;html=1;" parent="1" edge="1">
          <mxGeometry width="50" height="50" relative="1" as="geometry">
            <mxPoint x="520" y="386" as="sourcePoint" />
            <mxPoint x="520" y="403" as="targetPoint" />
          </mxGeometry>
        </mxCell>
        <mxCell id="RfUzpFnTfJlXqgFR28xh-63" value="" style="endArrow=classic;html=1;" parent="1" edge="1">
          <mxGeometry width="50" height="50" relative="1" as="geometry">
            <mxPoint x="600" y="386" as="sourcePoint" />
            <mxPoint x="600" y="403" as="targetPoint" />
          </mxGeometry>
        </mxCell>
        <mxCell id="RfUzpFnTfJlXqgFR28xh-64" value="" style="endArrow=classic;html=1;" parent="1" edge="1">
          <mxGeometry width="50" height="50" relative="1" as="geometry">
            <mxPoint x="678" y="386" as="sourcePoint" />
            <mxPoint x="678" y="403" as="targetPoint" />
          </mxGeometry>
        </mxCell>
        <mxCell id="RfUzpFnTfJlXqgFR28xh-65" value="&lt;font style=&quot;font-size: 10px&quot;&gt;Manage Regular Trip&lt;/font&gt;" style="ellipse;whiteSpace=wrap;html=1;" parent="1" vertex="1">
          <mxGeometry x="20" y="403" width="66" height="47" as="geometry" />
        </mxCell>
        <mxCell id="RfUzpFnTfJlXqgFR28xh-66" value="&lt;font style=&quot;font-size: 10px&quot;&gt;Arrange Schedule&lt;/font&gt;" style="ellipse;whiteSpace=wrap;html=1;" parent="1" vertex="1">
          <mxGeometry x="94" y="403" width="66" height="47" as="geometry" />
        </mxCell>
        <mxCell id="RfUzpFnTfJlXqgFR28xh-67" value="&lt;font style=&quot;font-size: 10px&quot;&gt;Manage Driver &amp;amp; Transport&lt;/font&gt;" style="ellipse;whiteSpace=wrap;html=1;" parent="1" vertex="1">
          <mxGeometry x="166" y="403" width="66" height="47" as="geometry" />
        </mxCell>
        <mxCell id="RfUzpFnTfJlXqgFR28xh-68" value="&lt;font style=&quot;font-size: 10px&quot;&gt;View Office Employee Info&lt;/font&gt;" style="ellipse;whiteSpace=wrap;html=1;" parent="1" vertex="1">
          <mxGeometry x="253" y="403" width="66" height="47" as="geometry" />
        </mxCell>
        <mxCell id="RfUzpFnTfJlXqgFR28xh-69" value="&lt;font style=&quot;font-size: 10px&quot;&gt;See Request for Urgent Trip&lt;/font&gt;" style="ellipse;whiteSpace=wrap;html=1;" parent="1" vertex="1">
          <mxGeometry x="326" y="401" width="73" height="50" as="geometry" />
        </mxCell>
        <mxCell id="RfUzpFnTfJlXqgFR28xh-70" value="&lt;font style=&quot;font-size: 10px&quot;&gt;Fuel Cost Calculation&lt;/font&gt;" style="ellipse;whiteSpace=wrap;html=1;" parent="1" vertex="1">
          <mxGeometry x="414" y="403" width="66" height="47" as="geometry" />
        </mxCell>
        <mxCell id="RfUzpFnTfJlXqgFR28xh-71" value="&lt;font style=&quot;font-size: 10px&quot;&gt;Generate Reports&lt;/font&gt;" style="ellipse;whiteSpace=wrap;html=1;" parent="1" vertex="1">
          <mxGeometry x="490" y="403" width="66" height="47" as="geometry" />
        </mxCell>
        <mxCell id="RfUzpFnTfJlXqgFR28xh-72" value="&lt;font style=&quot;font-size: 10px&quot;&gt;View Review&lt;/font&gt;" style="ellipse;whiteSpace=wrap;html=1;" parent="1" vertex="1">
          <mxGeometry x="570" y="403" width="66" height="47" as="geometry" />
        </mxCell>
        <mxCell id="RfUzpFnTfJlXqgFR28xh-73" value="&lt;font style=&quot;font-size: 10px&quot;&gt;View Account&lt;/font&gt;" style="ellipse;whiteSpace=wrap;html=1;" parent="1" vertex="1">
          <mxGeometry x="650" y="403" width="50" height="47" as="geometry" />
        </mxCell>
        <mxCell id="RfUzpFnTfJlXqgFR28xh-74" value="" style="endArrow=classic;html=1;" parent="1" edge="1">
          <mxGeometry width="50" height="50" relative="1" as="geometry">
            <mxPoint x="52.5" y="450" as="sourcePoint" />
            <mxPoint x="52.5" y="467" as="targetPoint" />
          </mxGeometry>
        </mxCell>
        <mxCell id="RfUzpFnTfJlXqgFR28xh-75" value="" style="endArrow=classic;html=1;" parent="1" edge="1">
          <mxGeometry width="50" height="50" relative="1" as="geometry">
            <mxPoint x="120" y="450" as="sourcePoint" />
            <mxPoint x="120" y="467" as="targetPoint" />
          </mxGeometry>
        </mxCell>
        <mxCell id="RfUzpFnTfJlXqgFR28xh-76" value="" style="endArrow=classic;html=1;" parent="1" edge="1">
          <mxGeometry width="50" height="50" relative="1" as="geometry">
            <mxPoint x="198.5" y="450" as="sourcePoint" />
            <mxPoint x="198.5" y="467" as="targetPoint" />
          </mxGeometry>
        </mxCell>
        <mxCell id="RfUzpFnTfJlXqgFR28xh-77" value="" style="shape=line;html=1;strokeWidth=6;rotation=0;" parent="1" vertex="1">
          <mxGeometry x="44" y="466" width="164" height="10" as="geometry" />
        </mxCell>
        <mxCell id="RfUzpFnTfJlXqgFR28xh-78" value="" style="endArrow=classic;html=1;" parent="1" edge="1">
          <mxGeometry width="50" height="50" relative="1" as="geometry">
            <mxPoint x="52.5" y="472" as="sourcePoint" />
            <mxPoint x="52.5" y="489" as="targetPoint" />
          </mxGeometry>
        </mxCell>
        <mxCell id="RfUzpFnTfJlXqgFR28xh-79" value="" style="endArrow=classic;html=1;" parent="1" edge="1">
          <mxGeometry width="50" height="50" relative="1" as="geometry">
            <mxPoint x="120" y="472" as="sourcePoint" />
            <mxPoint x="120" y="489" as="targetPoint" />
          </mxGeometry>
        </mxCell>
        <mxCell id="RfUzpFnTfJlXqgFR28xh-80" value="" style="endArrow=classic;html=1;" parent="1" edge="1">
          <mxGeometry width="50" height="50" relative="1" as="geometry">
            <mxPoint x="199" y="473" as="sourcePoint" />
            <mxPoint x="199" y="490" as="targetPoint" />
          </mxGeometry>
        </mxCell>
        <mxCell id="RfUzpFnTfJlXqgFR28xh-81" value="&lt;font style=&quot;font-size: 10px&quot;&gt;Insert&lt;/font&gt;" style="ellipse;whiteSpace=wrap;html=1;" parent="1" vertex="1">
          <mxGeometry x="20" y="490" width="62" height="30" as="geometry" />
        </mxCell>
        <mxCell id="RfUzpFnTfJlXqgFR28xh-82" value="&lt;font style=&quot;font-size: 10px&quot;&gt;Update&lt;/font&gt;" style="ellipse;whiteSpace=wrap;html=1;" parent="1" vertex="1">
          <mxGeometry x="86" y="490" width="62" height="30" as="geometry" />
        </mxCell>
        <mxCell id="RfUzpFnTfJlXqgFR28xh-83" value="&lt;font style=&quot;font-size: 10px&quot;&gt;Delete&lt;/font&gt;" style="ellipse;whiteSpace=wrap;html=1;" parent="1" vertex="1">
          <mxGeometry x="160" y="490" width="62" height="30" as="geometry" />
        </mxCell>
        <mxCell id="RfUzpFnTfJlXqgFR28xh-84" value="" style="endArrow=classic;html=1;" parent="1" edge="1">
          <mxGeometry width="50" height="50" relative="1" as="geometry">
            <mxPoint x="52.5" y="520" as="sourcePoint" />
            <mxPoint x="52.5" y="537" as="targetPoint" />
          </mxGeometry>
        </mxCell>
        <mxCell id="RfUzpFnTfJlXqgFR28xh-85" value="" style="endArrow=classic;html=1;" parent="1" edge="1">
          <mxGeometry width="50" height="50" relative="1" as="geometry">
            <mxPoint x="116.5" y="520" as="sourcePoint" />
            <mxPoint x="116.5" y="537" as="targetPoint" />
          </mxGeometry>
        </mxCell>
        <mxCell id="RfUzpFnTfJlXqgFR28xh-86" value="" style="endArrow=classic;html=1;" parent="1" edge="1">
          <mxGeometry width="50" height="50" relative="1" as="geometry">
            <mxPoint x="190.5" y="520" as="sourcePoint" />
            <mxPoint x="190.5" y="537" as="targetPoint" />
          </mxGeometry>
        </mxCell>
        <mxCell id="RfUzpFnTfJlXqgFR28xh-87" value="" style="shape=line;html=1;strokeWidth=6;rotation=0;" parent="1" vertex="1">
          <mxGeometry x="40" y="534" width="164" height="10" as="geometry" />
        </mxCell>
        <mxCell id="RfUzpFnTfJlXqgFR28xh-88" value="" style="endArrow=classic;html=1;exitX=0.471;exitY=0.74;exitDx=0;exitDy=0;exitPerimeter=0;" parent="1" source="RfUzpFnTfJlXqgFR28xh-87" edge="1">
          <mxGeometry width="50" height="50" relative="1" as="geometry">
            <mxPoint x="390" y="700" as="sourcePoint" />
            <mxPoint x="20" y="720" as="targetPoint" />
            <Array as="points">
              <mxPoint x="117" y="560" />
              <mxPoint x="20" y="560" />
            </Array>
          </mxGeometry>
        </mxCell>
        <mxCell id="RfUzpFnTfJlXqgFR28xh-89" value="" style="endArrow=classic;html=1;exitX=0.5;exitY=1;exitDx=0;exitDy=0;" parent="1" source="RfUzpFnTfJlXqgFR28xh-68" edge="1">
          <mxGeometry width="50" height="50" relative="1" as="geometry">
            <mxPoint x="127.24399999999991" y="551.4000000000001" as="sourcePoint" />
            <mxPoint x="30" y="720" as="targetPoint" />
            <Array as="points">
              <mxPoint x="286" y="570" />
              <mxPoint x="30" y="570" />
            </Array>
          </mxGeometry>
        </mxCell>
        <mxCell id="RfUzpFnTfJlXqgFR28xh-91" value="" style="endArrow=classic;html=1;" parent="1" edge="1">
          <mxGeometry width="50" height="50" relative="1" as="geometry">
            <mxPoint x="360" y="450" as="sourcePoint" />
            <mxPoint x="360" y="467" as="targetPoint" />
          </mxGeometry>
        </mxCell>
        <mxCell id="RfUzpFnTfJlXqgFR28xh-92" value="" style="shape=line;html=1;strokeWidth=6;rotation=0;" parent="1" vertex="1">
          <mxGeometry x="318" y="466" width="80" height="10" as="geometry" />
        </mxCell>
        <mxCell id="RfUzpFnTfJlXqgFR28xh-93" value="" style="endArrow=classic;html=1;" parent="1" edge="1">
          <mxGeometry width="50" height="50" relative="1" as="geometry">
            <mxPoint x="320" y="473" as="sourcePoint" />
            <mxPoint x="320" y="490" as="targetPoint" />
          </mxGeometry>
        </mxCell>
        <mxCell id="RfUzpFnTfJlXqgFR28xh-94" value="" style="endArrow=classic;html=1;" parent="1" edge="1">
          <mxGeometry width="50" height="50" relative="1" as="geometry">
            <mxPoint x="395" y="474" as="sourcePoint" />
            <mxPoint x="395" y="491" as="targetPoint" />
          </mxGeometry>
        </mxCell>
        <mxCell id="RfUzpFnTfJlXqgFR28xh-95" value="Time" style="ellipse;whiteSpace=wrap;html=1;" parent="1" vertex="1">
          <mxGeometry x="300" y="490" width="46" height="23" as="geometry" />
        </mxCell>
        <mxCell id="RfUzpFnTfJlXqgFR28xh-96" value="Location" style="ellipse;whiteSpace=wrap;html=1;" parent="1" vertex="1">
          <mxGeometry x="352" y="490" width="56" height="23" as="geometry" />
        </mxCell>
        <mxCell id="RfUzpFnTfJlXqgFR28xh-97" value="" style="endArrow=classic;html=1;" parent="1" edge="1">
          <mxGeometry width="50" height="50" relative="1" as="geometry">
            <mxPoint x="319" y="513" as="sourcePoint" />
            <mxPoint x="319" y="530" as="targetPoint" />
          </mxGeometry>
        </mxCell>
        <mxCell id="RfUzpFnTfJlXqgFR28xh-98" value="" style="endArrow=classic;html=1;" parent="1" edge="1">
          <mxGeometry width="50" height="50" relative="1" as="geometry">
            <mxPoint x="379.40999999999997" y="513" as="sourcePoint" />
            <mxPoint x="379.40999999999997" y="530" as="targetPoint" />
          </mxGeometry>
        </mxCell>
        <mxCell id="RfUzpFnTfJlXqgFR28xh-99" value="" style="shape=line;html=1;strokeWidth=6;rotation=0;" parent="1" vertex="1">
          <mxGeometry x="310" y="528" width="80" height="10" as="geometry" />
        </mxCell>
        <mxCell id="RfUzpFnTfJlXqgFR28xh-100" value="" style="endArrow=classic;html=1;" parent="1" edge="1">
          <mxGeometry width="50" height="50" relative="1" as="geometry">
            <mxPoint x="346" y="534" as="sourcePoint" />
            <mxPoint x="346" y="551" as="targetPoint" />
          </mxGeometry>
        </mxCell>
        <mxCell id="RfUzpFnTfJlXqgFR28xh-101" value="&lt;font style=&quot;font-size: 10px&quot;&gt;Check Availibility&lt;/font&gt;" style="ellipse;whiteSpace=wrap;html=1;" parent="1" vertex="1">
          <mxGeometry x="312" y="551.5" width="66" height="30" as="geometry" />
        </mxCell>
        <mxCell id="RfUzpFnTfJlXqgFR28xh-102" value="" style="endArrow=classic;html=1;exitX=0.5;exitY=1;exitDx=0;exitDy=0;" parent="1" source="RfUzpFnTfJlXqgFR28xh-101" edge="1">
          <mxGeometry width="50" height="50" relative="1" as="geometry">
            <mxPoint x="420" y="590" as="sourcePoint" />
            <mxPoint x="720" y="600" as="targetPoint" />
            <Array as="points">
              <mxPoint x="345" y="600" />
            </Array>
          </mxGeometry>
        </mxCell>
        <mxCell id="RfUzpFnTfJlXqgFR28xh-105" value="Is Available" style="rhombus;whiteSpace=wrap;html=1;strokeColor=#000000;" parent="1" vertex="1">
          <mxGeometry x="720" y="575" width="60" height="50" as="geometry" />
        </mxCell>
        <mxCell id="RfUzpFnTfJlXqgFR28xh-106" value="" style="endArrow=classic;html=1;exitX=0.5;exitY=1;exitDx=0;exitDy=0;" parent="1" source="RfUzpFnTfJlXqgFR28xh-105" edge="1">
          <mxGeometry width="50" height="50" relative="1" as="geometry">
            <mxPoint x="450" y="530" as="sourcePoint" />
            <mxPoint x="690" y="640" as="targetPoint" />
            <Array as="points">
              <mxPoint x="750" y="640" />
            </Array>
          </mxGeometry>
        </mxCell>
        <mxCell id="RfUzpFnTfJlXqgFR28xh-107" value="&lt;font style=&quot;font-size: 10px&quot;&gt;Send Massage Request Accepted&lt;/font&gt;" style="ellipse;whiteSpace=wrap;html=1;" parent="1" vertex="1">
          <mxGeometry x="593" y="608" width="105" height="45" as="geometry" />
        </mxCell>
        <mxCell id="RfUzpFnTfJlXqgFR28xh-108" value="" style="endArrow=classic;html=1;exitX=1;exitY=0.5;exitDx=0;exitDy=0;entryX=1;entryY=0.5;entryDx=0;entryDy=0;" parent="1" source="RfUzpFnTfJlXqgFR28xh-105" target="RfUzpFnTfJlXqgFR28xh-109" edge="1">
          <mxGeometry width="50" height="50" relative="1" as="geometry">
            <mxPoint x="450" y="750" as="sourcePoint" />
            <mxPoint x="600" y="660" as="targetPoint" />
            <Array as="points">
              <mxPoint x="800" y="600" />
              <mxPoint x="800" y="663" />
            </Array>
          </mxGeometry>
        </mxCell>
        <mxCell id="RfUzpFnTfJlXqgFR28xh-109" value="&lt;font style=&quot;font-size: 10px&quot;&gt;Send Massage Request Not Accepted&lt;/font&gt;" style="ellipse;whiteSpace=wrap;html=1;" parent="1" vertex="1">
          <mxGeometry x="500" y="640" width="105" height="45" as="geometry" />
        </mxCell>
        <mxCell id="RfUzpFnTfJlXqgFR28xh-110" value="YES" style="text;html=1;align=center;verticalAlign=middle;resizable=0;points=[];autosize=1;strokeColor=none;" parent="1" vertex="1">
          <mxGeometry x="710" y="620" width="40" height="20" as="geometry" />
        </mxCell>
        <mxCell id="RfUzpFnTfJlXqgFR28xh-111" value="NO" style="text;html=1;align=center;verticalAlign=middle;resizable=0;points=[];autosize=1;strokeColor=none;" parent="1" vertex="1">
          <mxGeometry x="775" y="580" width="30" height="20" as="geometry" />
        </mxCell>
        <mxCell id="RfUzpFnTfJlXqgFR28xh-112" value="" style="endArrow=classic;html=1;exitX=0;exitY=0.5;exitDx=0;exitDy=0;entryX=0.75;entryY=0.5;entryDx=0;entryDy=0;entryPerimeter=0;" parent="1" source="RfUzpFnTfJlXqgFR28xh-107" target="RfUzpFnTfJlXqgFR28xh-113" edge="1">
          <mxGeometry width="50" height="50" relative="1" as="geometry">
            <mxPoint x="450" y="750" as="sourcePoint" />
            <mxPoint x="490" y="630" as="targetPoint" />
          </mxGeometry>
        </mxCell>
        <mxCell id="RfUzpFnTfJlXqgFR28xh-113" value="" style="shape=line;html=1;strokeWidth=6;rotation=-90;" parent="1" vertex="1">
          <mxGeometry x="450" y="640" width="66" height="10" as="geometry" />
        </mxCell>
        <mxCell id="RfUzpFnTfJlXqgFR28xh-114" value="" style="endArrow=classic;html=1;" parent="1" edge="1">
          <mxGeometry width="50" height="50" relative="1" as="geometry">
            <mxPoint x="480" y="620" as="sourcePoint" />
            <mxPoint x="460" y="620" as="targetPoint" />
          </mxGeometry>
        </mxCell>
        <mxCell id="RfUzpFnTfJlXqgFR28xh-115" value="" style="endArrow=classic;html=1;" parent="1" edge="1">
          <mxGeometry width="50" height="50" relative="1" as="geometry">
            <mxPoint x="480" y="670" as="sourcePoint" />
            <mxPoint x="460" y="670" as="targetPoint" />
          </mxGeometry>
        </mxCell>
        <mxCell id="RfUzpFnTfJlXqgFR28xh-116" value="&lt;font style=&quot;font-size: 10px&quot;&gt;Driver Name&lt;/font&gt;" style="ellipse;whiteSpace=wrap;html=1;" parent="1" vertex="1">
          <mxGeometry x="390" y="606" width="66" height="34" as="geometry" />
        </mxCell>
        <mxCell id="RfUzpFnTfJlXqgFR28xh-117" value="&lt;font style=&quot;font-size: 10px&quot;&gt;Transport No&lt;/font&gt;" style="ellipse;whiteSpace=wrap;html=1;" parent="1" vertex="1">
          <mxGeometry x="390" y="653" width="66" height="27" as="geometry" />
        </mxCell>
        <mxCell id="RfUzpFnTfJlXqgFR28xh-119" value="" style="endArrow=classic;html=1;" parent="1" edge="1">
          <mxGeometry width="50" height="50" relative="1" as="geometry">
            <mxPoint x="389" y="665.91" as="sourcePoint" />
            <mxPoint x="369" y="665.91" as="targetPoint" />
          </mxGeometry>
        </mxCell>
        <mxCell id="RfUzpFnTfJlXqgFR28xh-120" value="" style="endArrow=classic;html=1;" parent="1" edge="1">
          <mxGeometry width="50" height="50" relative="1" as="geometry">
            <mxPoint x="390" y="620" as="sourcePoint" />
            <mxPoint x="370" y="620" as="targetPoint" />
          </mxGeometry>
        </mxCell>
        <mxCell id="RfUzpFnTfJlXqgFR28xh-121" value="" style="shape=line;html=1;strokeWidth=6;rotation=-90;" parent="1" vertex="1">
          <mxGeometry x="334" y="640" width="66" height="10" as="geometry" />
        </mxCell>
        <mxCell id="RfUzpFnTfJlXqgFR28xh-122" value="" style="endArrow=classic;html=1;" parent="1" edge="1">
          <mxGeometry width="50" height="50" relative="1" as="geometry">
            <mxPoint x="366" y="644.41" as="sourcePoint" />
            <mxPoint x="350" y="720" as="targetPoint" />
            <Array as="points">
              <mxPoint x="350" y="644" />
            </Array>
          </mxGeometry>
        </mxCell>
        <mxCell id="RfUzpFnTfJlXqgFR28xh-123" value="" style="endArrow=classic;html=1;exitX=0.5;exitY=1;exitDx=0;exitDy=0;entryX=0.849;entryY=0.371;entryDx=0;entryDy=0;entryPerimeter=0;" parent="1" source="RfUzpFnTfJlXqgFR28xh-109" target="RfUzpFnTfJlXqgFR28xh-135" edge="1">
          <mxGeometry width="50" height="50" relative="1" as="geometry">
            <mxPoint x="450" y="770" as="sourcePoint" />
            <mxPoint x="553" y="710" as="targetPoint" />
          </mxGeometry>
        </mxCell>
        <mxCell id="RfUzpFnTfJlXqgFR28xh-124" value="" style="endArrow=classic;html=1;" parent="1" edge="1">
          <mxGeometry width="50" height="50" relative="1" as="geometry">
            <mxPoint x="450" y="449" as="sourcePoint" />
            <mxPoint x="450" y="466" as="targetPoint" />
          </mxGeometry>
        </mxCell>
        <mxCell id="RfUzpFnTfJlXqgFR28xh-125" value="" style="shape=line;html=1;strokeWidth=6;rotation=0;" parent="1" vertex="1">
          <mxGeometry x="413" y="466" width="80" height="10" as="geometry" />
        </mxCell>
        <mxCell id="RfUzpFnTfJlXqgFR28xh-126" value="" style="endArrow=classic;html=1;" parent="1" edge="1">
          <mxGeometry width="50" height="50" relative="1" as="geometry">
            <mxPoint x="490" y="473" as="sourcePoint" />
            <mxPoint x="490" y="490" as="targetPoint" />
          </mxGeometry>
        </mxCell>
        <mxCell id="RfUzpFnTfJlXqgFR28xh-127" value="" style="endArrow=classic;html=1;" parent="1" edge="1">
          <mxGeometry width="50" height="50" relative="1" as="geometry">
            <mxPoint x="422.40999999999997" y="473" as="sourcePoint" />
            <mxPoint x="422.40999999999997" y="490" as="targetPoint" />
          </mxGeometry>
        </mxCell>
        <mxCell id="RfUzpFnTfJlXqgFR28xh-128" value="&lt;font style=&quot;font-size: 10px&quot;&gt;Monthly Basis&lt;/font&gt;" style="ellipse;whiteSpace=wrap;html=1;" parent="1" vertex="1">
          <mxGeometry x="411" y="486" width="51" height="27" as="geometry" />
        </mxCell>
        <mxCell id="RfUzpFnTfJlXqgFR28xh-129" value="&lt;font style=&quot;font-size: 10px&quot;&gt;Urgent Trip Basis&lt;/font&gt;" style="ellipse;whiteSpace=wrap;html=1;" parent="1" vertex="1">
          <mxGeometry x="465" y="488" width="60" height="29" as="geometry" />
        </mxCell>
        <mxCell id="RfUzpFnTfJlXqgFR28xh-130" value="" style="endArrow=classic;html=1;" parent="1" edge="1">
          <mxGeometry width="50" height="50" relative="1" as="geometry">
            <mxPoint x="525" y="449" as="sourcePoint" />
            <mxPoint x="525" y="466" as="targetPoint" />
          </mxGeometry>
        </mxCell>
        <mxCell id="RfUzpFnTfJlXqgFR28xh-131" value="" style="endArrow=classic;html=1;" parent="1" edge="1">
          <mxGeometry width="50" height="50" relative="1" as="geometry">
            <mxPoint x="602.41" y="451" as="sourcePoint" />
            <mxPoint x="602.41" y="468" as="targetPoint" />
          </mxGeometry>
        </mxCell>
        <mxCell id="RfUzpFnTfJlXqgFR28xh-132" value="" style="endArrow=classic;html=1;" parent="1" edge="1">
          <mxGeometry width="50" height="50" relative="1" as="geometry">
            <mxPoint x="678" y="451" as="sourcePoint" />
            <mxPoint x="678" y="468" as="targetPoint" />
          </mxGeometry>
        </mxCell>
        <mxCell id="RfUzpFnTfJlXqgFR28xh-133" value="" style="shape=line;html=1;strokeWidth=6;rotation=0;" parent="1" vertex="1">
          <mxGeometry x="520" y="466" width="160" height="10" as="geometry" />
        </mxCell>
        <mxCell id="RfUzpFnTfJlXqgFR28xh-135" value="" style="shape=line;html=1;strokeWidth=6;rotation=0;" parent="1" vertex="1">
          <mxGeometry x="10" y="720" width="640" height="10" as="geometry" />
        </mxCell>
        <mxCell id="RfUzpFnTfJlXqgFR28xh-136" value="" style="endArrow=classic;html=1;exitX=0.499;exitY=0.841;exitDx=0;exitDy=0;exitPerimeter=0;" parent="1" source="RfUzpFnTfJlXqgFR28xh-135" target="RfUzpFnTfJlXqgFR28xh-137" edge="1">
          <mxGeometry width="50" height="50" relative="1" as="geometry">
            <mxPoint x="450" y="680" as="sourcePoint" />
            <mxPoint x="329" y="750" as="targetPoint" />
          </mxGeometry>
        </mxCell>
        <mxCell id="RfUzpFnTfJlXqgFR28xh-137" value="Logout" style="ellipse;whiteSpace=wrap;html=1;strokeColor=#000000;" parent="1" vertex="1">
          <mxGeometry x="304.5" y="750" width="51" height="30" as="geometry" />
        </mxCell>
        <mxCell id="RfUzpFnTfJlXqgFR28xh-138" value="" style="endArrow=classic;html=1;exitX=0.499;exitY=0.841;exitDx=0;exitDy=0;exitPerimeter=0;" parent="1" edge="1">
          <mxGeometry width="50" height="50" relative="1" as="geometry">
            <mxPoint x="329.41000000000014" y="779.9999999999999" as="sourcePoint" />
            <mxPoint x="330.05" y="801.59" as="targetPoint" />
          </mxGeometry>
        </mxCell>
        <mxCell id="RfUzpFnTfJlXqgFR28xh-139" value="" style="ellipse;html=1;shape=endState;fillColor=#000000;strokeColor=#ff0000;" parent="1" vertex="1">
          <mxGeometry x="315" y="800" width="30" height="30" as="geometry" />
        </mxCell>
        <mxCell id="RfUzpFnTfJlXqgFR28xh-3" value="" style="html=1;verticalAlign=bottom;startArrow=circle;startFill=1;endArrow=open;startSize=6;endSize=8;" parent="1" edge="1">
          <mxGeometry x="35" y="10" width="80" as="geometry">
            <mxPoint x="90" y="30" as="sourcePoint" />
            <mxPoint x="90" y="70" as="targetPoint" />
          </mxGeometry>
        </mxCell>
        <mxCell id="RfUzpFnTfJlXqgFR28xh-4" value="Register" style="ellipse;whiteSpace=wrap;html=1;" parent="1" vertex="1">
          <mxGeometry x="50" y="70" width="80" height="40" as="geometry" />
        </mxCell>
        <mxCell id="RfUzpFnTfJlXqgFR28xh-6" value="" style="endArrow=classic;html=1;" parent="1" edge="1">
          <mxGeometry x="35" y="10" width="50" height="50" as="geometry">
            <mxPoint x="93" y="111" as="sourcePoint" />
            <mxPoint x="93" y="128" as="targetPoint" />
          </mxGeometry>
        </mxCell>
        <mxCell id="RfUzpFnTfJlXqgFR28xh-7" value="Enter Registration Info" style="ellipse;whiteSpace=wrap;html=1;" parent="1" vertex="1">
          <mxGeometry x="35" y="130" width="125" height="30" as="geometry" />
        </mxCell>
        <mxCell id="RfUzpFnTfJlXqgFR28xh-8" value="" style="shape=line;html=1;strokeWidth=6;rotation=-90;" parent="1" vertex="1">
          <mxGeometry x="102" y="117" width="164" height="10" as="geometry" />
        </mxCell>
        <mxCell id="RfUzpFnTfJlXqgFR28xh-10" value="" style="endArrow=classic;html=1;" parent="1" edge="1">
          <mxGeometry x="35" y="10" width="50" height="50" as="geometry">
            <mxPoint x="160" y="144.5" as="sourcePoint" />
            <mxPoint x="180" y="144.5" as="targetPoint" />
          </mxGeometry>
        </mxCell>
        <mxCell id="RfUzpFnTfJlXqgFR28xh-11" value="" style="endArrow=classic;html=1;" parent="1" edge="1">
          <mxGeometry x="35" y="10" width="50" height="50" as="geometry">
            <mxPoint x="184" y="43" as="sourcePoint" />
            <mxPoint x="204" y="43" as="targetPoint" />
          </mxGeometry>
        </mxCell>
        <mxCell id="RfUzpFnTfJlXqgFR28xh-12" value="" style="endArrow=classic;html=1;" parent="1" edge="1">
          <mxGeometry x="35" y="10" width="50" height="50" as="geometry">
            <mxPoint x="185" y="80" as="sourcePoint" />
            <mxPoint x="205" y="80" as="targetPoint" />
          </mxGeometry>
        </mxCell>
        <mxCell id="RfUzpFnTfJlXqgFR28xh-13" value="" style="endArrow=classic;html=1;" parent="1" edge="1">
          <mxGeometry x="35" y="10" width="50" height="50" as="geometry">
            <mxPoint x="185" y="120" as="sourcePoint" />
            <mxPoint x="205" y="120" as="targetPoint" />
          </mxGeometry>
        </mxCell>
        <mxCell id="RfUzpFnTfJlXqgFR28xh-14" value="" style="endArrow=classic;html=1;" parent="1" edge="1">
          <mxGeometry x="35" y="10" width="50" height="50" as="geometry">
            <mxPoint x="186" y="160" as="sourcePoint" />
            <mxPoint x="206" y="160" as="targetPoint" />
          </mxGeometry>
        </mxCell>
        <mxCell id="RfUzpFnTfJlXqgFR28xh-15" value="" style="endArrow=classic;html=1;" parent="1" edge="1">
          <mxGeometry x="35" y="10" width="50" height="50" as="geometry">
            <mxPoint x="187" y="200" as="sourcePoint" />
            <mxPoint x="207" y="200" as="targetPoint" />
          </mxGeometry>
        </mxCell>
        <mxCell id="RfUzpFnTfJlXqgFR28xh-16" value="Name" style="ellipse;whiteSpace=wrap;html=1;" parent="1" vertex="1">
          <mxGeometry x="204" y="31" width="56" height="23" as="geometry" />
        </mxCell>
        <mxCell id="RfUzpFnTfJlXqgFR28xh-18" value="Email" style="ellipse;whiteSpace=wrap;html=1;" parent="1" vertex="1">
          <mxGeometry x="204" y="70" width="56" height="23" as="geometry" />
        </mxCell>
        <mxCell id="RfUzpFnTfJlXqgFR28xh-19" value="Phone" style="ellipse;whiteSpace=wrap;html=1;" parent="1" vertex="1">
          <mxGeometry x="204" y="107" width="56" height="23" as="geometry" />
        </mxCell>
        <mxCell id="RfUzpFnTfJlXqgFR28xh-20" value="Address" style="ellipse;whiteSpace=wrap;html=1;" parent="1" vertex="1">
          <mxGeometry x="204" y="150" width="56" height="23" as="geometry" />
        </mxCell>
        <mxCell id="RfUzpFnTfJlXqgFR28xh-21" value="Password" style="ellipse;whiteSpace=wrap;html=1;" parent="1" vertex="1">
          <mxGeometry x="204" y="190" width="56" height="23" as="geometry" />
        </mxCell>
        <mxCell id="RfUzpFnTfJlXqgFR28xh-22" value="" style="endArrow=classic;html=1;" parent="1" edge="1">
          <mxGeometry x="35" y="10" width="50" height="50" as="geometry">
            <mxPoint x="260" y="42" as="sourcePoint" />
            <mxPoint x="280" y="42" as="targetPoint" />
          </mxGeometry>
        </mxCell>
        <mxCell id="RfUzpFnTfJlXqgFR28xh-23" value="" style="endArrow=classic;html=1;" parent="1" edge="1">
          <mxGeometry x="35" y="10" width="50" height="50" as="geometry">
            <mxPoint x="260" y="81" as="sourcePoint" />
            <mxPoint x="280" y="81" as="targetPoint" />
          </mxGeometry>
        </mxCell>
        <mxCell id="RfUzpFnTfJlXqgFR28xh-24" value="" style="endArrow=classic;html=1;" parent="1" edge="1">
          <mxGeometry x="35" y="10" width="50" height="50" as="geometry">
            <mxPoint x="260" y="121.5" as="sourcePoint" />
            <mxPoint x="280" y="121.5" as="targetPoint" />
          </mxGeometry>
        </mxCell>
        <mxCell id="RfUzpFnTfJlXqgFR28xh-25" value="" style="endArrow=classic;html=1;" parent="1" edge="1">
          <mxGeometry x="35" y="10" width="50" height="50" as="geometry">
            <mxPoint x="260" y="161" as="sourcePoint" />
            <mxPoint x="280" y="161" as="targetPoint" />
          </mxGeometry>
        </mxCell>
        <mxCell id="RfUzpFnTfJlXqgFR28xh-26" value="" style="endArrow=classic;html=1;" parent="1" edge="1">
          <mxGeometry x="35" y="10" width="50" height="50" as="geometry">
            <mxPoint x="260" y="201" as="sourcePoint" />
            <mxPoint x="280" y="201" as="targetPoint" />
          </mxGeometry>
        </mxCell>
        <mxCell id="RfUzpFnTfJlXqgFR28xh-27" value="" style="shape=line;html=1;strokeWidth=6;rotation=-90;" parent="1" vertex="1">
          <mxGeometry x="204" y="117" width="164" height="10" as="geometry" />
        </mxCell>
        <mxCell id="RfUzpFnTfJlXqgFR28xh-28" value="" style="endArrow=classic;html=1;" parent="1" edge="1">
          <mxGeometry x="35" y="10" width="50" height="50" as="geometry">
            <mxPoint x="286" y="120" as="sourcePoint" />
            <mxPoint x="306" y="120" as="targetPoint" />
          </mxGeometry>
        </mxCell>
        <mxCell id="RfUzpFnTfJlXqgFR28xh-29" value="Enter Submit" style="ellipse;whiteSpace=wrap;html=1;" parent="1" vertex="1">
          <mxGeometry x="306" y="103.5" width="54" height="31.5" as="geometry" />
        </mxCell>
        <mxCell id="RfUzpFnTfJlXqgFR28xh-30" value="" style="endArrow=classic;html=1;" parent="1" edge="1">
          <mxGeometry x="35" y="10" width="50" height="50" as="geometry">
            <mxPoint x="332.5" y="135" as="sourcePoint" />
            <mxPoint x="332.5" y="215" as="targetPoint" />
          </mxGeometry>
        </mxCell>
        <mxCell id="RfUzpFnTfJlXqgFR28xh-31" value="Get Massage Registration Done" style="ellipse;whiteSpace=wrap;html=1;" parent="1" vertex="1">
          <mxGeometry x="281.5" y="213" width="103" height="40" as="geometry" />
        </mxCell>
        <mxCell id="RfUzpFnTfJlXqgFR28xh-32" value="" style="endArrow=classic;html=1;" parent="1" edge="1">
          <mxGeometry x="35" y="10" width="50" height="50" as="geometry">
            <mxPoint x="280" y="237" as="sourcePoint" />
            <mxPoint x="260" y="237" as="targetPoint" />
          </mxGeometry>
        </mxCell>
        <mxCell id="RfUzpFnTfJlXqgFR28xh-33" value="Click at Login" style="ellipse;whiteSpace=wrap;html=1;" parent="1" vertex="1">
          <mxGeometry x="207" y="221.25" width="54" height="31.5" as="geometry" />
        </mxCell>
        <mxCell id="RfUzpFnTfJlXqgFR28xh-34" value="" style="endArrow=classic;html=1;" parent="1" edge="1">
          <mxGeometry x="35" y="10" width="50" height="50" as="geometry">
            <mxPoint x="207" y="236.5" as="sourcePoint" />
            <mxPoint x="187" y="236.5" as="targetPoint" />
          </mxGeometry>
        </mxCell>
        <mxCell id="RfUzpFnTfJlXqgFR28xh-35" value="" style="shape=line;html=1;strokeWidth=6;rotation=-90;" parent="1" vertex="1">
          <mxGeometry x="154.25" y="236.25" width="61.5" height="10" as="geometry" />
        </mxCell>
        <mxCell id="RfUzpFnTfJlXqgFR28xh-36" value="" style="endArrow=classic;html=1;" parent="1" edge="1">
          <mxGeometry x="35" y="10" width="50" height="50" as="geometry">
            <mxPoint x="183.25" y="213" as="sourcePoint" />
            <mxPoint x="163.25" y="213" as="targetPoint" />
          </mxGeometry>
        </mxCell>
        <mxCell id="RfUzpFnTfJlXqgFR28xh-37" value="" style="endArrow=classic;html=1;" parent="1" edge="1">
          <mxGeometry x="35" y="10" width="50" height="50" as="geometry">
            <mxPoint x="184" y="267" as="sourcePoint" />
            <mxPoint x="164" y="267" as="targetPoint" />
          </mxGeometry>
        </mxCell>
        <mxCell id="RfUzpFnTfJlXqgFR28xh-38" value="Enter Email" style="ellipse;whiteSpace=wrap;html=1;" parent="1" vertex="1">
          <mxGeometry x="112" y="199" width="54" height="31.5" as="geometry" />
        </mxCell>
        <mxCell id="RfUzpFnTfJlXqgFR28xh-39" value="Enter Password" style="ellipse;whiteSpace=wrap;html=1;" parent="1" vertex="1">
          <mxGeometry x="100" y="250" width="66" height="33.25" as="geometry" />
        </mxCell>
        <mxCell id="RfUzpFnTfJlXqgFR28xh-40" value="" style="shape=line;html=1;strokeWidth=6;rotation=-90;" parent="1" vertex="1">
          <mxGeometry x="47" y="238" width="66" height="10" as="geometry" />
        </mxCell>
        <mxCell id="RfUzpFnTfJlXqgFR28xh-41" value="" style="endArrow=classic;html=1;" parent="1" edge="1">
          <mxGeometry x="35" y="10" width="50" height="50" as="geometry">
            <mxPoint x="112" y="214.25" as="sourcePoint" />
            <mxPoint x="80" y="214" as="targetPoint" />
          </mxGeometry>
        </mxCell>
        <mxCell id="RfUzpFnTfJlXqgFR28xh-42" value="" style="endArrow=classic;html=1;" parent="1" edge="1">
          <mxGeometry x="35" y="10" width="50" height="50" as="geometry">
            <mxPoint x="102" y="266.13" as="sourcePoint" />
            <mxPoint x="82" y="266.13" as="targetPoint" />
          </mxGeometry>
        </mxCell>
        <mxCell id="RfUzpFnTfJlXqgFR28xh-43" value="" style="endArrow=open;endFill=1;endSize=12;html=1;exitX=0.548;exitY=0.3;exitDx=0;exitDy=0;exitPerimeter=0;" parent="1" source="RfUzpFnTfJlXqgFR28xh-40" edge="1">
          <mxGeometry x="35" y="10" width="160" as="geometry">
            <mxPoint x="330" y="170" as="sourcePoint" />
            <mxPoint x="720" y="290" as="targetPoint" />
            <Array as="points">
              <mxPoint x="40" y="240" />
              <mxPoint x="40" y="290" />
            </Array>
          </mxGeometry>
        </mxCell>
        <mxCell id="RfUzpFnTfJlXqgFR28xh-45" value="&lt;font color=&quot;#ff5b14&quot;&gt;SYSTEM&lt;/font&gt;" style="text;html=1;align=center;verticalAlign=middle;resizable=0;points=[];autosize=1;strokeColor=none;" parent="1" vertex="1">
          <mxGeometry x="713" y="10" width="70" height="20" as="geometry" />
        </mxCell>
        <mxCell id="RfUzpFnTfJlXqgFR28xh-46" value="Is Valid" style="rhombus;whiteSpace=wrap;html=1;strokeColor=#000000;" parent="1" vertex="1">
          <mxGeometry x="720" y="266" width="50" height="50" as="geometry" />
        </mxCell>
        <mxCell id="RfUzpFnTfJlXqgFR28xh-47" value="" style="endArrow=classic;html=1;" parent="1" edge="1">
          <mxGeometry x="35" y="10" width="50" height="50" as="geometry">
            <mxPoint x="746" y="319" as="sourcePoint" />
            <mxPoint x="676" y="329" as="targetPoint" />
            <Array as="points">
              <mxPoint x="746" y="329" />
            </Array>
          </mxGeometry>
        </mxCell>
        <mxCell id="RfUzpFnTfJlXqgFR28xh-48" value="NO" style="text;html=1;align=center;verticalAlign=middle;resizable=0;points=[];autosize=1;strokeColor=none;" parent="1" vertex="1">
          <mxGeometry x="702" y="310" width="30" height="20" as="geometry" />
        </mxCell>
        <mxCell id="RfUzpFnTfJlXqgFR28xh-49" value="See Login Failed Massage" style="ellipse;whiteSpace=wrap;html=1;" parent="1" vertex="1">
          <mxGeometry x="590" y="300" width="88" height="54" as="geometry" />
        </mxCell>
        <mxCell id="RfUzpFnTfJlXqgFR28xh-50" value="" style="endArrow=classic;html=1;" parent="1" edge="1">
          <mxGeometry x="35" y="10" width="50" height="50" as="geometry">
            <mxPoint x="590" y="330" as="sourcePoint" />
            <mxPoint x="570" y="330" as="targetPoint" />
          </mxGeometry>
        </mxCell>
        <mxCell id="RfUzpFnTfJlXqgFR28xh-51" value="Input Info Again" style="ellipse;whiteSpace=wrap;html=1;" parent="1" vertex="1">
          <mxGeometry x="500" y="310" width="70" height="40" as="geometry" />
        </mxCell>
        <mxCell id="RfUzpFnTfJlXqgFR28xh-52" value="" style="endArrow=classic;html=1;exitX=0;exitY=0.5;exitDx=0;exitDy=0;entryX=0.5;entryY=1;entryDx=0;entryDy=0;" parent="1" source="RfUzpFnTfJlXqgFR28xh-51" target="RfUzpFnTfJlXqgFR28xh-33" edge="1">
          <mxGeometry x="35" y="10" width="50" height="50" as="geometry">
            <mxPoint x="390" y="190" as="sourcePoint" />
            <mxPoint x="440" y="140" as="targetPoint" />
            <Array as="points">
              <mxPoint x="234" y="330" />
            </Array>
          </mxGeometry>
        </mxCell>
        <mxCell id="RfUzpFnTfJlXqgFR28xh-53" value="" style="endArrow=classic;html=1;exitX=1;exitY=0.5;exitDx=0;exitDy=0;" parent="1" source="RfUzpFnTfJlXqgFR28xh-46" edge="1">
          <mxGeometry x="35" y="10" width="50" height="50" as="geometry">
            <mxPoint x="390" y="290" as="sourcePoint" />
            <mxPoint x="520" y="360" as="targetPoint" />
            <Array as="points">
              <mxPoint x="800" y="291" />
              <mxPoint x="800" y="360" />
            </Array>
          </mxGeometry>
        </mxCell>
        <mxCell id="RfUzpFnTfJlXqgFR28xh-54" value="YES" style="text;html=1;align=center;verticalAlign=middle;resizable=0;points=[];autosize=1;strokeColor=none;" parent="1" vertex="1">
          <mxGeometry x="760" y="275" width="40" height="20" as="geometry" />
        </mxCell>
        <mxCell id="RfUzpFnTfJlXqgFR28xh-55" value="" style="shape=line;html=1;strokeWidth=6;rotation=0;" parent="1" vertex="1">
          <mxGeometry x="40" y="380" width="640" height="10" as="geometry" />
        </mxCell>
        <mxCell id="RfUzpFnTfJlXqgFR28xh-103" value="Go to Dashboard" style="ellipse;whiteSpace=wrap;html=1;" parent="1" vertex="1">
          <mxGeometry x="450" y="340" width="70" height="40" as="geometry" />
        </mxCell>
        <mxCell id="RfUzpFnTfJlXqgFR28xh-104" value="" style="endArrow=classic;html=1;exitX=0;exitY=0.5;exitDx=0;exitDy=0;entryX=0.5;entryY=0.394;entryDx=0;entryDy=0;entryPerimeter=0;" parent="1" source="RfUzpFnTfJlXqgFR28xh-103" target="RfUzpFnTfJlXqgFR28xh-55" edge="1">
          <mxGeometry x="35" y="10" width="50" height="50" as="geometry">
            <mxPoint x="450" y="540" as="sourcePoint" />
            <mxPoint x="500" y="490" as="targetPoint" />
            <Array as="points">
              <mxPoint x="360" y="360" />
            </Array>
          </mxGeometry>
        </mxCell>
        <mxCell id="RfUzpFnTfJlXqgFR28xh-141" value="" style="endArrow=none;html=1;entryX=-0.014;entryY=-0.221;entryDx=0;entryDy=0;entryPerimeter=0;" parent="1" target="RfUzpFnTfJlXqgFR28xh-45" edge="1">
          <mxGeometry width="50" height="50" relative="1" as="geometry">
            <mxPoint x="710" y="841.88232421875" as="sourcePoint" />
            <mxPoint x="680" y="20" as="targetPoint" />
          </mxGeometry>
        </mxCell>
        <mxCell id="Amit6z9mIpW9pSLfhfp4-1" value="" style="endArrow=classic;html=1;" edge="1" parent="1">
          <mxGeometry width="50" height="50" relative="1" as="geometry">
            <mxPoint x="440" y="513" as="sourcePoint" />
            <mxPoint x="440" y="530" as="targetPoint" />
          </mxGeometry>
        </mxCell>
        <mxCell id="Amit6z9mIpW9pSLfhfp4-2" value="" style="endArrow=classic;html=1;" edge="1" parent="1">
          <mxGeometry width="50" height="50" relative="1" as="geometry">
            <mxPoint x="494.5" y="517" as="sourcePoint" />
            <mxPoint x="494.5" y="534" as="targetPoint" />
          </mxGeometry>
        </mxCell>
        <mxCell id="Amit6z9mIpW9pSLfhfp4-3" value="" style="shape=line;html=1;strokeWidth=6;rotation=0;" vertex="1" parent="1">
          <mxGeometry x="430" y="530" width="80" height="10" as="geometry" />
        </mxCell>
        <mxCell id="Amit6z9mIpW9pSLfhfp4-4" value="" style="endArrow=classic;html=1;entryX=0.296;entryY=0.46;entryDx=0;entryDy=0;entryPerimeter=0;" edge="1" parent="1" target="RfUzpFnTfJlXqgFR28xh-135">
          <mxGeometry width="50" height="50" relative="1" as="geometry">
            <mxPoint x="460" y="540" as="sourcePoint" />
            <mxPoint x="440" y="570" as="targetPoint" />
            <Array as="points">
              <mxPoint x="460" y="560" />
              <mxPoint x="310" y="600" />
              <mxPoint x="199" y="600" />
            </Array>
          </mxGeometry>
        </mxCell>
        <mxCell id="Amit6z9mIpW9pSLfhfp4-5" value="" style="endArrow=classic;html=1;" edge="1" parent="1" source="RfUzpFnTfJlXqgFR28xh-133">
          <mxGeometry width="50" height="50" relative="1" as="geometry">
            <mxPoint x="390" y="620" as="sourcePoint" />
            <mxPoint x="210" y="720" as="targetPoint" />
            <Array as="points">
              <mxPoint x="599" y="550" />
              <mxPoint x="350" y="610" />
              <mxPoint x="210" y="610" />
            </Array>
          </mxGeometry>
        </mxCell>
      </root>
    </mxGraphModel>
  </diagram>
</mxfile>
